<?xml version="1.0" encoding="UTF-8"?><svg id="Layer_1" xmlns="http://www.w3.org/2000/svg" viewBox="0 0 2000 2000"><path d="M566.267,1128.611l-7.731,1.157-7.731,4.626h-7.73l-7.731,3.469-9.277-5.781-10.823,6.938h12.369l1.546,1.157-13.915,5.781-12.369-8.095-7.73,4.626h-10.823l-29.377,2.313-15.461-2.313h-27.831l-3.092,1.157-20.099-5.782-24.739-3.469h-6.185l-9.277-6.938h-3.092l-27.831-5.782-24.738-5.782-4.638-4.626,10.823-3.469-9.277-5.782,1.546-1.156,27.83,6.938,3.092,2.313,6.185,2.312,26.284-2.312-9.276-9.251-10.823-1.157,7.731,5.782v1.156l-29.377-6.938v-2.312l13.915,1.156,18.554-5.781-4.638,2.312,41.746,6.938,20.099-1.156v-1.157l-24.738-4.626v-1.157l10.823-1.156,7.731,1.156,26.284-6.938,7.731,1.157,12.369,1.156-12.369-12.72,7.731-4.626,3.092,3.47,9.276-1.157,13.915,2.312,12.369,1.157,27.83-1.157,7.731,1.157,64.938-8.095,15.462-3.469-17.008,8.095-35.561,6.938,12.369,1.157,9.277,4.626,4.638-3.469-3.092-2.313,34.015-3.469,32.469-1.157,13.915-1.156v-2.313l7.73-1.157,7.731,2.313,6.185-1.157,6.185-4.626-4.638-3.469v-2.312l6.185,2.312,7.731,1.157,21.646-10.408-23.192,2.313,51.023-18.502,6.185-6.939,6.185-11.564-12.369,10.408-1.546-16.19,7.731-5.781,18.553-8.096-3.092-5.781-6.184-2.313-10.823,3.469v-11.564l-4.638,3.469-9.277-5.781,26.284-2.313,6.185-6.938-1.546-1.157h6.185l-4.638-6.938,9.277-3.47-4.638-5.781,9.277-3.469-1.546,8.095,4.638,9.251-4.638,3.469-1.546,5.781,7.731,4.626h6.185l7.731,1.157,10.823-4.626-3.092-8.095-3.092-15.033h4.638l6.185-9.25,3.092-42.787-3.092-10.407h-3.092l7.731-3.469,1.546,8.095,1.546,3.469,6.185-2.313,6.185-9.25-4.638,12.72-9.277,15.032,4.638,8.095,7.731-9.251-1.546,4.626v2.313l-6.185,8.095,3.092,12.72-9.277,8.095,3.092,3.469,9.277-2.312,1.546,4.626-10.823,15.032,12.369,2.313-1.546-4.626,7.731-1.157,29.376,8.095,12.369-9.25-1.546-1.157h15.462l6.185,4.626-3.092,3.469v2.312l41.746-13.876,7.731-8.096,7.731,1.157,17.007-8.095v6.938l7.731,2.313-23.192,6.938-21.646,6.939-7.731,3.469-24.739,16.189-4.638,2.313-35.562,11.564-6.184,10.408-7.731,10.407-23.192-3.469,1.546,10.408h4.638l-10.823,5.782-10.823,3.469,10.823,11.564h4.638l23.192-3.469-58.753,20.815,3.092,1.157,3.092,2.312h1.546v1.157l6.184,4.626-1.546,9.251-7.731,4.626-6.185,1.157,1.546,6.938,6.185,4.626,1.546-9.251,3.092,1.157,1.546,21.971h-1.546l-1.546-5.782-7.731-6.938-9.277,5.781-1.546,2.313-3.092-8.095,3.092-5.782-1.546-2.313v-13.876l3.092-3.47v-5.781l-10.823-9.251-12.369,2.312,12.369,11.565-7.731,15.032,1.546,21.971-7.73-4.626-17.008,2.313v-15.033l6.185-8.095,7.731-5.782-7.731-8.095,12.369,1.157,3.092-5.782-10.823,1.157-4.638-6.938-9.277,4.626-6.185,1.156h-4.638l-12.369,3.47-15.461,6.938,15.461-4.626v-2.312l4.638,3.469-4.638,2.312-10.823,5.782-15.462,9.251-13.915,3.469,1.546,3.469-29.376,5.782-12.369-2.313-13.915,3.47,13.915,2.312-17.008,3.469,6.185,6.939-15.461-3.47-12.369,2.313-17.008,2.312ZM454.945,1107.796l15.462-3.469v-2.313l-21.646,4.626,1.546,1.157h4.638ZM473.499,1123.985v1.157h18.554l-18.554-1.157ZM501.329,1107.796l4.638-2.312,13.915-2.313-18.554-3.469-12.369,2.312,12.369,5.782ZM519.883,1090.45l-15.462,1.157v2.312l12.369,1.157,3.092-4.626ZM516.791,1107.796l9.277,2.313,13.915-6.939-23.192,4.626ZM1071.855,1396.893l21.646-3.469,4.638,8.095h-55.661l4.638,4.626h-1.547l-38.653-2.313-4.638,1.157-24.738,3.469-9.277-1.157-15.462,2.313,24.739,4.626,23.192-1.157,35.562-2.312h24.739l-4.639,1.156-51.023,2.313-38.653,3.469-10.823-2.312-6.185,3.469-1.546,3.469-34.015,4.626,4.638-4.626h-18.554l-6.185,9.251,7.731,2.312,13.915,1.157,40.2-1.157,9.277,2.313-49.476,5.781-9.277,1.157-74.214,15.033-6.185,2.312-26.285,3.469,1.546-2.312-3.092-1.157h-13.915l-9.277,8.095-12.369,8.095-43.292,9.251h-10.823l-15.462,5.782h-6.184l12.369-6.938-12.369-1.157-7.731,1.157-41.746,8.095-26.285,9.251-18.553,1.156-4.638-1.156h-3.092l-15.462-6.939-6.185-3.469-4.638-4.626-1.546-3.469-4.638-9.251v-3.469l-6.185-11.565-1.546-3.469h13.915l-6.185-6.938,6.185-2.313-6.185-4.626h3.092l6.185-10.407,1.546-3.469,4.638,3.469v-1.157h20.1l10.823,1.157,35.562-8.095,58.753-11.565,7.731,2.313,9.277,1.157,24.739-3.47,44.838-6.938,6.185-1.157,7.731,3.469,12.369-3.469,17.008-3.469,47.93-3.469,23.192-4.626,66.484-4.626,10.823-2.313v2.313l-24.739,5.782-46.384,4.625-34.015,5.782v2.313l10.823,3.469,44.838-6.939h10.823l13.915-1.156,1.546-2.313-4.638-2.312h1.546l37.108,2.312,9.277-5.781,10.823-9.251h27.831v2.312l-23.192,3.469v2.313l40.2,2.312v-2.312l-12.369-2.313,6.184-5.781,44.839-1.157,27.83,1.157,10.824,3.469-15.463,1.157-24.737-1.157-23.192,6.938,10.823,2.313ZM598.736,1447.773h12.369l3.092-3.469-4.638-1.157-12.369,2.313,1.546,2.312ZM625.021,1055.758l3.092,2.313-15.462,8.095-3.092-5.782,15.462-4.626ZM625.021,1077.73h-12.369v2.313h12.369v-2.313ZM657.49,1093.919l-13.915,4.626-12.369,6.939,37.107-10.408-1.546-2.312-9.277,1.156ZM710.058,1036.1h3.092l12.369,1.156-30.923,3.47v-2.313l15.461-2.312ZM793.55,1223.435l-4.638,6.938,12.369,12.72-12.369,9.251,6.184,11.564-9.276,11.565,6.184,16.189,6.185-6.938h3.092l-4.638,10.407-4.638,6.939-4.638,10.407v1.157l1.546,3.469-10.823,10.408-3.092,1.156h-1.546l-7.731,9.251v12.72l-1.546,11.565,1.546,3.469,4.638-1.157,1.546-9.251,7.731-9.251-3.092-10.407,4.638,1.157,1.546,8.095-1.546,11.564,1.546,9.251v1.157l4.638,9.251-7.731-1.157-9.277-6.939h-3.092l-6.185,2.313,6.185,3.469-7.731-3.469-4.638,8.095-10.823,12.72-3.092-1.157,1.546-5.781-9.277,4.626h-4.638l-17.008-9.251v-13.877l-6.185,4.626-1.546-3.469,3.092-3.47-4.638-25.44-3.092-12.72v-6.938l3.092-6.939-3.092-11.564v-4.626l4.638-17.346h3.092l6.185,16.189,4.638,4.626,3.092-17.346,4.638,10.408,7.731,10.408v-5.782l-1.546-11.564,9.277-3.47,1.546-9.251h-21.646l3.092-6.938-4.638-11.564,6.185-4.626,4.638,9.251h4.638v-3.47l1.546-5.781v-26.597l-3.092-1.157-3.092,2.313-12.369,6.938-15.462,8.095,6.185,9.251-4.638,8.095-4.638-4.626,1.546-16.189,3.092-3.469,18.554-24.285,1.546-12.72,1.546-1.157v-18.501l1.546-3.469-1.546-6.939v-10.407l3.092-6.939-1.546-5.782,3.092-21.97,12.369,3.469-4.638,13.877,15.461-1.157-1.546,3.469-6.184,20.815-1.547,8.095,7.731,8.095,3.092,21.971-7.731,18.502,1.546,4.626-1.546,6.939-1.546,5.781,4.638,12.72-3.092,16.19,9.277,12.72,3.092-17.346,1.546-5.782,1.546-26.597,6.185-3.469v17.346l-3.092,11.564,1.546,33.536,3.092,4.625-6.185,17.346h-6.185l-6.185-16.189h-4.638v16.189l-3.092,17.346,3.092,9.251,4.638,3.47,4.638-2.313v-18.502l7.731-9.251,6.185,3.47,7.731-6.939v-2.312l-3.092-12.72-1.546-4.626,1.546-10.408,4.638-17.346-9.277-6.938,10.823-10.408-3.092-13.877,1.546-11.564-17.008-5.782,3.092-9.251h3.092l1.546,11.565,7.731-3.469,3.092-3.47,1.546-13.876-3.092-4.626-4.638-5.782,9.277,2.312-1.546-17.346-3.092-1.156-10.823,4.626-3.092-8.096,26.284-4.625-4.638,13.876,3.092,10.408v1.157l-1.546,20.815,10.823,5.782-15.461,11.564,9.277,5.782ZM703.874,1262.752l1.546,11.564h-1.546l-1.546-11.564h1.546ZM731.705,1355.262l3.092-1.156-3.092-23.128,1.546-2.313,4.638-18.501-4.638-3.47-20.1-1.156-1.546,1.156,6.185,4.626h-1.546l-12.369,21.971v2.313l9.277-1.157,3.092,9.251,7.731-3.469,4.638,8.095,3.092,6.938ZM713.151,1350.637l6.185,5.782,6.185-4.626-7.731-4.626-4.638,3.469ZM720.882,1315.945l-3.092-4.626,9.277-2.312,4.638,21.971-6.185,6.938h-3.092v-4.626l3.092-6.938-4.638-10.408ZM719.335,1241.936l6.185-4.626,4.638,2.313-6.185,4.626-4.638-2.313ZM727.066,1403.831l10.823,2.313,3.092-6.939,3.092,6.939-4.638,1.156-12.369-1.156v-2.313ZM745.62,1350.637l3.092,1.157,7.731-3.469-6.185-6.939-4.638,9.251ZM764.173,801.353l-9.277,10.408h-3.092l-3.092-3.469,13.915-27.754h3.092l-3.092,11.564,1.546,9.251ZM768.812,908.898l-3.092,40.473-10.823-1.156,1.546,5.781-4.638-5.781v-27.754l-3.092-11.564,6.185-17.346v-10.408l3.092-1.157,9.277,6.939-1.546-3.47-1.546-8.095,1.546-5.781-3.092-11.565,6.185-11.564,4.638,6.938-6.185,4.626,3.092,8.095h3.092l-4.638,42.787ZM748.712,1122.829h3.092l1.546,9.251h-3.092l-1.546-9.251ZM757.989,956.309h-1.546v-2.313l1.546,2.313ZM771.904,1004.878l-12.369,2.312-3.092,18.502,15.462-11.564,4.638-4.626,1.546-3.469-6.185-1.157ZM770.358,986.375l-9.277,6.938-1.546,6.939,10.823-13.877ZM768.812,1392.267v11.564l-9.277-2.312,9.277-9.251ZM771.904,760.88h-1.546l-4.638,4.626-4.638-5.782v-18.502l7.731-9.251-7.731-6.938,6.185-13.877,6.185-50.881,3.092,8.095v4.626l3.092,9.251-1.546,9.251,3.092,3.469,3.092-2.313,3.092-26.597,4.638-12.72-1.546-5.781-4.638-1.157-3.092,24.284h-4.638v-21.971l-4.638,2.313,7.731-9.251,3.092-2.312-3.092-15.033,4.638-2.312-3.092-3.47-4.638-9.251,9.277-26.596,1.546-10.408,3.092-10.408-3.092-15.032,4.638-9.251,6.184-23.128,1.546-8.095-1.546-6.938-4.638-4.626,9.277-9.251,131.422-180.397h15.461l-3.092-4.626h27.831l-1.546-4.626,18.553-4.626,32.469-2.312,43.292-3.469,30.923,3.469,12.369,4.626,26.284,15.032,20.099,13.877,23.192,34.692,1.547,5.782v3.469l17.007,18.502,3.092,8.095,6.185,12.72-3.092,5.782-4.638,5.782,17.007,9.25-9.277,15.033-6.185,5.782h10.824v1.156l-17.008,4.626v2.313l12.369,1.156-3.092,3.47,1.547,5.781,1.546,12.72,1.546,3.47-12.368,5.781-4.639,10.408,15.462-6.938-10.823,16.189-3.092-6.939-3.092,17.346,7.73-4.626,6.185,10.408h7.731l-13.916,15.033,6.185,16.189-10.823,5.782-3.092,2.312-21.646,9.251,1.546,2.312,15.462,1.157-1.546,15.033-6.185-12.72-15.462,12.72,1.546,6.938,3.092,2.313v9.25l4.639,5.782h-1.547l-12.368,8.095v12.72l20.099-3.469,3.092,1.157-6.185,6.938-6.185,4.626,6.185-9.251-1.547-1.156-20.099,8.095,1.547,2.312h13.915l-3.092,2.313-17.007,1.156-4.639-4.626-1.546-5.781,3.092-5.782-15.462,2.313-1.546,1.156,9.276,2.313h-9.276v1.157l12.368,3.469-10.823,11.564-3.092,5.782,3.092,9.251-6.185,2.312-13.915-5.782-12.369,6.939-9.277,8.095-3.092-2.313,6.185-15.032,18.554-6.938-1.547-2.313-7.731-15.032,3.093-9.251-4.639-11.565,7.73-1.156,13.916,10.407,1.547-10.407h21.645l9.277-2.313,1.547-6.938-9.277,1.156-21.646,1.157-9.277-2.312,1.547,4.626-12.369-1.157,4.638-13.877h23.192l-9.276-9.251-4.639,2.313-1.546-5.782-4.639-16.189,7.73-4.626v-12.72l9.278-23.128-3.093-1.157-6.185,3.469-1.546-4.625,10.824-6.939v-2.312l4.638-4.626-6.185-10.408-13.916,10.408-3.091-1.157,3.091-6.938-1.546-5.782-4.639-2.313-4.638,4.626,3.092-11.564,6.185-11.564v-5.782l-1.546-10.408-4.639-11.564-3.092-4.626,9.277-5.782h4.639l-3.093-3.469-12.369-12.72,4.639-9.251v-1.156l-10.824-15.033,4.639-5.782-6.185-4.626-6.185-2.312,3.092-9.251-18.553-32.378-3.093-5.782-7.73-10.408-9.277-5.781-37.107,13.876-37.107,16.19-98.953,163.05-3.092,4.626-7.731,1.157-4.638,1.157-3.092,4.626,7.731,1.156,9.277,2.313-18.554,19.658-4.638,12.72-4.638,3.47-1.546,15.032,7.731,6.938-6.185,8.096-7.731,8.095-4.638,2.312-12.369,11.565-12.369,18.501-6.185-4.626-1.546,15.033,6.185-1.157v8.095l18.554-16.189,3.092-12.72v-4.626l3.092-1.157,3.092,5.782-1.546,2.312,3.092,6.939,4.638-5.782,1.546-12.72h3.092l-3.092,13.877-1.546,12.72-3.092-4.626-3.092,3.469-4.638,23.128-3.092,12.72v4.626l9.277,8.095-4.638,16.189-9.277,5.782-4.638,24.284-3.092,5.782-1.546-28.909,6.185-28.91h-4.638l-9.277,21.971-3.092-1.156v-13.877l7.731-12.72-13.915,3.469-1.546-1.157,12.369-17.346,3.092-5.781-3.092-1.157-4.638,5.781-4.638-13.876-4.638,5.781-3.092,25.44-7.73,17.347-3.092,5.781,1.546,20.815h-3.092l-1.546-4.626-9.277,10.408,6.185,10.408,3.092-10.408h1.546v5.782l-4.638,18.501v3.47l3.092,5.781-13.915,6.939,6.185-3.469-1.546-4.626ZM776.543,830.263l-1.546,2.312-13.915-3.469,9.277-6.938,6.185,8.095ZM767.266,750.472l1.546-12.72h-4.638l1.546,12.72h1.546ZM764.173,1187.587l3.092-18.502h1.546l6.185,9.251-7.731,1.157,3.092,4.626-4.638,3.469h-1.546ZM779.635,781.695v13.877l-1.546,3.469-10.823-1.157v-1.157l4.638-2.312-1.546-4.626,7.731-11.564,1.546,3.469ZM770.358,970.186l12.369-9.251-4.638,4.626-7.731,4.626ZM771.904,1143.644l12.369-12.72,6.185,11.564-4.638,3.469-13.915-2.312ZM779.635,921.618l6.185-20.816,3.092,1.157-6.185,20.815-3.092-1.156ZM784.273,929.712v19.658l-3.092-19.658h3.092ZM802.827,767.818l3.092,15.033-7.731,15.032-12.369-5.782,9.276-3.469,4.638-6.938,3.092-13.877ZM795.096,809.448l1.546,6.939v6.938l-4.638,11.565-6.184-6.939,7.731-18.502h1.546ZM787.366,1376.078l1.546-4.626v5.781l-1.546-1.156ZM792.004,876.518h-3.092v-38.16l6.184,4.626-3.092,17.346v16.189ZM798.188,733.127l7.731-2.312,4.638,4.625-17.007,30.067,3.092-8.096,1.546-9.25v-15.033ZM804.373,601.298l-4.638-2.312-4.638,4.626,3.092,4.626,6.185-6.939ZM802.827,1444.305l20.1-3.469,9.277-4.626,32.469-3.469-1.546-3.47-15.462,1.157-43.292,8.095-4.638,3.469,3.092,2.313ZM830.658,989.844l27.83-2.312,1.546,2.312-57.207,16.19,20.1-2.313,7.731-4.626,23.192-3.469h12.369l10.823-6.939-12.369,2.313-1.546-1.157,17.008-5.782h-10.823v-4.626l-29.376,4.626-21.646-3.469v2.313l4.638,2.312h-3.092l-15.462,11.564,26.285-6.938ZM809.011,627.895l-3.092,1.157v1.157l7.731-1.157v-11.564l1.546-3.47-4.638-1.156-3.092,3.469,1.546,11.564ZM815.196,814.073v15.033l-3.092,33.535v6.939l4.638,9.251-9.277,3.469-1.546-16.19,12.369-119.107,6.185,6.938-3.092,32.379v1.157l-6.185,26.596ZM813.65,551.574h-1.546l-4.638,15.032h3.092l3.092-15.032ZM829.111,542.323l-4.638-1.157-3.092,9.251,7.731-8.095ZM906.418,1437.366l-1.546-2.312-23.192,2.312,9.276-4.625-64.937,16.189,80.399-11.565ZM843.026,516.883l-9.276-3.47-1.546,10.408h3.092l7.73-6.938ZM863.126,1406.144l-27.83,2.312v3.469l9.277,1.157,18.553-6.938ZM839.935,1034.944l20.099-6.939,1.546,1.157-20.099,6.939-1.546-1.157ZM863.126,1038.413l-21.646,2.313-1.546-2.313,23.192-1.157v1.157ZM892.503,1426.959l-1.547-3.469-20.099,4.626,1.546,2.312,20.1-3.469ZM982.179,940.119l9.277,5.782-30.923,4.626-13.915-1.157-9.276,1.157-3.092-3.469,37.107-11.564-18.554,4.625h-12.369l-7.731,1.157-35.562,16.189-4.638,3.47-18.554-3.47,15.462-3.469-12.369-9.251,4.638-2.312,13.915,3.469-6.184-5.782,13.915-5.781-1.546,11.564h9.277l7.731-9.251,6.185-3.469,18.554-6.938,4.638-8.096-9.276,2.313-3.092-4.626,20.099-13.877-29.376-2.312,20.099-11.565,15.462-6.938-10.823,6.938-1.546,5.782,9.277-1.157,3.092-1.156,3.092,5.781,4.638-4.626,24.739-5.781,9.276,1.156,12.369-9.25,3.092-3.47,6.185,1.157,15.461-2.312,6.185,1.156-26.284,9.251,4.638,4.626h-15.462l1.546,4.626-15.462,8.095h-1.546l-9.277-8.095-6.185,3.469-20.1,18.502-4.638,4.626-9.277,15.033,18.554-1.157v-2.313l-6.185-1.156v-1.157h7.731l6.185,2.312,21.646-2.312,6.185-4.626-18.553-2.313-13.915,5.782-1.546,1.157v-3.469l10.823-5.782,13.915,1.157,34.015-11.565,10.823-5.781,1.546,1.156-20.1,17.346h-4.638l-7.731,2.313-10.823,9.251-10.823,5.781ZM924.972,1422.333l20.099-2.313v-3.469l-21.646,2.313,1.546,3.469ZM972.902,899.646l-3.092-1.157-12.369,9.251,1.546,2.312,13.915-10.407ZM1045.57,811.761h20.101l-13.916,1.157-4.638,1.156,1.547,3.47-21.646,15.032-1.546,3.469-24.739,5.782-1.546-3.469h1.546l10.823-8.095,13.915-13.877,20.099-4.626ZM1129.063,756.255l-15.462,16.189-21.646,16.189-7.73,4.626,4.638,3.469-6.185,1.157-3.091,9.251,15.46,11.564h-6.185l-4.638,2.313-1.547,10.407-3.091-4.626h-1.547l-15.462,1.157,3.092-10.407,10.823-11.565v-13.877l-6.185,5.782-17.007,4.626,13.916-8.095v-4.626h-12.369l-6.185-1.157-10.824,10.408-13.915-2.313,18.554-10.407,37.108-8.095-4.639,5.781,3.092,1.157,12.369-9.251-21.646-2.312,1.546-4.626,17.008,2.312,3.092-2.312,6.183-12.72-12.368,1.156v-2.312l20.099-6.938,9.277,2.312,18.554-10.408,7.73,4.626-10.823,11.565ZM1040.932,854.547l10.823,4.626-24.737,13.877-1.546-2.313,15.461-16.189ZM1053.301,745.847l23.192-6.938-7.73,4.626-4.639,5.781h9.278l7.73-1.156v5.781l-20.099,8.095-3.093,5.782-1.546,6.938-7.73-6.938-9.277,2.312,7.73-12.72,6.185-11.564ZM1076.493,844.139l-13.915,5.782-1.546-4.626h-12.369l21.645-10.407,9.278,1.156-3.093,8.095ZM1070.309,756.255v-1.157l-7.73-2.313-4.639,8.096,12.369-4.626ZM1124.425,675.307l3.091,1.157-1.546,4.626,6.185-11.564,10.823-12.72,3.092-4.626,13.916,3.469-7.731,2.312-4.638,3.469,7.73,3.47-1.546,10.407,13.915,3.469-1.547,6.939-7.73,2.312-1.546-1.156,7.73-3.47-1.546-1.156-12.369,2.312,6.185,8.095-7.731,16.19,1.547,9.25-6.185,6.939-9.277,4.626-23.192,10.407-1.547-1.156,1.547-8.095-7.731-4.626-15.462,3.469,4.639-3.469-17.008,1.156-15.46,5.782,18.554-34.692,4.638-11.564,6.185-3.47,12.368-4.626,7.731,3.47-23.192,21.971,24.739,4.626-24.739,10.407,1.546,3.469,7.73-2.312,3.093-2.313,27.83-1.156-6.185,6.938h15.462l4.639-3.469,4.638-13.877-3.092-2.312-3.092,1.156-20.099,4.626,27.831-9.251-18.554-2.312,3.092-6.938-10.824,1.156-10.823,10.408-15.462-3.469h1.546l18.554-12.72,9.278-11.565ZM1088.863,796.727l13.915,1.157-6.185,6.939-7.73-8.096ZM1112.055,760.88l-9.278,4.626-6.185,6.938h3.093l18.554-12.72-6.185,1.157ZM1456.845,1451.242v12.72l12.368,11.565-3.092,5.781-20.099,3.47-12.369-2.313-27.83-5.782-17.008-11.564-20.099-1.157-6.185-3.469-30.923-11.564-43.291-8.095,12.369-1.157,1.546-2.313-24.739-3.469,3.092-1.156-145.337-21.971-29.376,1.156v-1.156l21.645-2.313,20.101-11.564,12.369-1.157h30.922l12.369-9.251,3.092-4.626,6.185,11.565h24.739l6.185-2.313-3.092,6.938,4.638,2.313h27.831v-2.313l-18.554-3.469-1.546-9.251,7.73-1.156,9.277,1.156,27.831,4.626h9.277l-3.092,5.782,6.185,2.312,15.46,2.313,10.824-4.626v-2.312l30.922,8.095,20.101,4.626,21.645,10.407,1.547,2.313,6.185,8.095,12.369,8.095,10.823,6.938,12.369,5.782,12.369,1.157v2.312h-7.73ZM1119.786,655.649l-7.73,9.251,12.369-5.782-1.547-2.312-3.092-1.157ZM1138.34,609.393l3.092-4.626-7.731-5.781,4.639,10.407ZM1147.617,631.364l4.638-9.25-18.554,9.25h13.916ZM1142.977,1385.328h17.008v3.47h-24.739l7.73-3.47ZM1169.262,514.569l-3.092-3.469-10.823,3.469h13.915ZM1167.716,450.969l-9.277-1.157v2.313l10.823,3.469-1.546-4.626ZM1192.455,549.261l-4.639,5.782-1.546,3.469,3.092,1.157,4.638-2.313,1.547-6.938-3.092-1.157ZM1197.092,538.854l-6.185-3.47-3.092,4.626,4.639,3.47,4.638-4.626ZM1195.547,441.717h-6.185v10.408l6.185-10.408ZM1226.469,1414.239l21.646,1.157v-1.157l-12.369-1.157-9.277,1.157Z" stroke="#000" stroke-miterlimit="10"/><path d="M1557.917,1300.944l22.227-25.05,8.554-12.196,6.838-6.426-1.945,8.695-4.315,6.587-17.412,28.293-4.315,6.586-7.066,9.351-13.02,20.732-8.782,15.122-11.152,13.012-1.338.895-1.868,7.721-2.75,2.765-12.915,3.102-2.522-.16,2.294,3.084-4.466,8.536-.958-3.98,12.535-44.559-6.609,3.501-2.826,3.741-28.732,57.252-7.642.497-8.751-1.534-6.382.576-9.131,3.342-3.708-1.215-11.045-4.618-3.859.736.532-6.825-3.784-.239-5.849-6.249-5.546-10.149-4.513-7.144-3.631-2.19,7.946-4.396.805,5.93-.729-6.905-7.339-3.403,2.826-3.741-7.187-5.354.076-.975-9.025-14.288,6.23,1.374,7.034,7.304,1.641-4.796-7.339-3.403,1.337-.896,7.642-.496-3.023-9.99-.122-14.705,1.034,3.005,1.413-1.87-3.099-9.015-.654-7.88.532-6.825-1.534-12.834,1.792-6.745-.243-29.41.896-44.035,1.641-4.796,1.868-7.721-2.142-5.035-4.665-5.194,2.857-20.396-17.032,23.419-10.924,10.087-4.239,5.61,2.293,3.084-4.694,11.461-.304,3.9-3.13,7.641-17.64,31.218-11.152,13.012-5.652,7.481-11.151,13.013-9.664,10.167-17.533,13.588-8.904.416-12.458-2.747-2.446-1.135-8.98,1.392-11.273-1.693-5.546-10.149.228-2.926-1.337.896-5.849-6.249-3.601-18.845,3.054-6.665,2.522.16-5.85-6.25-.38,4.875-1.261-.08,1.823-23.401-2.872-11.94,1.443-18.525-1.352-31.44,3.084-23.321,1.018-29.33.304-3.9,4.497-25.191-.502-9.83,3.798-48.751-7.187-5.354-1.337.896-8.402,10.247-8.326,9.272-8.554,12.196-6.989,8.377-1.489,2.845-.152,1.95-5.804,9.432-5.88,10.406-14.889,28.453-10.575,21.867-6.716,21.131-3.206,8.616-8.432,26.901-3.586,13.491-10.605,38.522-5.683,24.136-7.824,19.102-5.804,9.431-1.413,1.871-.152,1.95-9.36,6.267-2.522-.16-48.072-1.081-10.969-5.593.684-8.775-.578-8.855,3.206-8.616,3.13-7.641-2.598.816-5.697-8.199,3.935-1.71,9.861,3.563-2.567-15.84-.426-10.805,4.163-4.635.578,8.854-2.173,11.621,1.262.08,3.054-6.665.805,5.93,4.012-2.686-1.307-15.76,1.717-5.77,5.849,6.249,1.337-.895,1.064-13.651-2.37-2.109-2.795-12.915-2.598.816-.304,3.9-1.489,2.845-4.816-3.244,1.063-13.65-.805-5.93,3.282-9.59,7.855-35.757.228-2.925,8.964-33.727,6.291-31.937,1.215-15.6,4.953-31.042,4.087-3.661-4.892-2.269,1.641-4.796-.426-10.805-.045-15.68.608-7.8,6.837-6.426-6.153-2.348.988-12.676-2.644-14.865.304-3.9-8.113-25.989-4.437-8.119,4.163-4.635,6.382-.576,5.423-4.556,8.676,2.509,10.24-1.312,1.338-.895,15.589-4.893,6.533-2.526,1.414-1.871,4.513,7.145,7.187,5.353,8.447,5.434,2.446,1.135,5.165,15.024-.912,11.7,3.525,19.82.578,8.855-6.108,13.331,2.947,10.964-.76,9.75-3.054,6.666,1.034,3.005-1.823,23.4-4.999,15.361,2.142,5.035-8.751-1.534-1.717,5.77,3.86-.735,3.707,1.214-.532,6.826-2.02,9.67-1.565,3.82-2.096,10.645-.228,2.925.121,14.705,1.262.08,18.293-23.338,32.347-41.066,12.414-12.933,9.511-8.216,2.522.16,2.75-2.766-1.11-2.029,6.99-8.377,8.25-8.296,9.131-3.342,15.133.957,11.121,3.643,21.439,1.356,13.492,5.753,8.645,19.164,1.504,29.49-4.755,44.771-8.007,37.706-4.117,20.316,3.753,16.894-3.434,11.541-3.206,8.616-2.446-1.135-3.556-3.164-1.337.895,2.294,3.085,3.175,8.04-7.87,3.421-5.043-.319.805,5.93-3.935,1.71,3.631,2.19-4.163,4.635,7.262,4.379-6.457,1.552,5.773,7.224-4.542,9.511-4.968-1.293,2.142,5.034-.608,7.8,7.718-1.471,6.609-3.501,10.772-8.137,32.043-37.166,29.674-39.276,30.326-31.396,8.478-11.222.076-.975,5.88-10.406,7.87-3.422,22.7,1.436,2.294,3.085,3.327,6.089,4.892,2.269,2.902-4.715,6.883,9.253-3.13,7.641,9.633,6.489,1.792-6.745,6.458-1.552,1.337-.896,3.252,7.064,4.664,5.194,4.057,12.995-8.053,22.027-4.786,61.426-1.397,34.206.729,6.905-2.096,10.645-.183,18.605-.334,20.555,4.558,22.824,15.057,1.932,16.121-11.718,48.164-48.884ZM1049.189,1226.633l2.826-3.741-.684,8.775-2.522-.16.38-4.875ZM1059.05,1230.196l-1.186-1.055-.957-3.98,8.979-1.391-6.837,6.426ZM1098.295,1230.719l1.291-16.575-3.784-.239-5.728,8.456-3.631-2.19-.076.975,4.513,7.144-5.272,2.606-.228,2.925-4.618,10.486-1.414,1.871,9.481,8.438,4.694-11.461,4.771-12.436ZM1097.17,1196.354l10.165-.337.228-2.925-10.393,3.262ZM1126.493,901.321l-1.186-1.055,3.86-.735-2.674,1.79ZM1126.676,1126.693l4.361,9.095,3.129-7.641-6.153-2.349-1.337.896ZM1595.612,1256.297l-.076.975-1.186-1.055,1.262.08Z" stroke="#000" stroke-miterlimit="10"/><text transform="translate(737.889 1583.808) scale(1.359 1)" font-family="Hooge0553, &apos;hooge 05_53&apos;" font-size="88.607" letter-spacing=".05em" stroke="#000" stroke-miterlimit="10"><tspan x="0" y="0">Visuals</tspan></text></svg>